<svg width="24" height="25" viewBox="0 0 24 25" fill="none" xmlns="http://www.w3.org/2000/svg">
<path fill-rule="evenodd" clip-rule="evenodd" d="M2 12.5C2 6.97715 6.47715 2.5 12 2.5C17.5228 2.5 22 6.97715 22 12.5C22 18.0228 17.5228 22.5 12 22.5C6.47715 22.5 2 18.0228 2 12.5ZM12 4.1C7.36081 4.1 3.6 7.86081 3.6 12.5C3.6 17.1392 7.36081 20.9 12 20.9C16.6391 20.9 20.4 17.1392 20.4 12.5C20.4 7.86081 16.6392 4.1 12 4.1ZM14.8342 10.9343C15.1466 10.6219 15.6531 10.6219 15.9656 10.9343C16.278 11.2467 16.278 11.7533 15.9656 12.0657L12.5715 15.4598C12.259 15.7722 11.7525 15.7722 11.4401 15.4598L8.04597 12.0657C7.73355 11.7533 7.73355 11.2467 8.04597 10.9343C8.35839 10.6219 8.86492 10.6219 9.17734 10.9343L12.0058 13.7627L14.8342 10.9343Z" fill="#33363D"/>
</svg>
