<svg width="24" height="25" viewBox="0 0 24 25" fill="none" xmlns="http://www.w3.org/2000/svg">
<path d="M12 11.9776H12.0001C13.2182 11.9763 14.386 11.4918 15.2473 10.6305C16.1086 9.76915 16.5931 8.60134 16.5944 7.38326V7.38315C16.5944 6.47444 16.325 5.58615 15.8201 4.83059C15.3153 4.07504 14.5977 3.48615 13.7582 3.13841C12.9187 2.79066 11.9949 2.69968 11.1036 2.87696C10.2124 3.05423 9.39373 3.49182 8.75118 4.13436C8.10864 4.77691 7.67106 5.59557 7.49378 6.48681C7.3165 7.37805 7.40748 8.30184 7.75523 9.14137C8.10297 9.9809 8.69186 10.6985 9.44742 11.2033C10.203 11.7082 11.0913 11.9776 12 11.9776ZM10.3323 4.88799C10.8259 4.55814 11.4063 4.38209 12 4.38209C12.7957 4.38297 13.5586 4.69942 14.1213 5.26203C14.684 5.82466 15.0006 6.58752 15.0016 7.38327C15.0017 7.97692 14.8257 8.55726 14.496 9.05092C14.1662 9.5446 13.6975 9.92941 13.149 10.1567C12.6005 10.3839 11.997 10.4435 11.4147 10.3277C10.8324 10.212 10.2975 9.92612 9.8777 9.50636C9.45786 9.08659 9.17193 8.55176 9.05607 7.96949C8.94021 7.38722 8.99962 6.78366 9.22679 6.23516C9.45395 5.68665 9.83868 5.21783 10.3323 4.88799Z" fill="white" stroke="white" stroke-width="0.2"/>
<path d="M19.9238 22.1988C20.0267 22.1811 20.1252 22.1433 20.2135 22.0875C20.302 22.0317 20.3785 21.9589 20.4389 21.8735C20.4992 21.7881 20.5422 21.6916 20.5652 21.5896C20.5882 21.488 20.591 21.3829 20.5735 21.2802C20.2764 19.2297 19.2417 17.3579 17.6633 16.0157C16.085 14.6735 14.0715 13.953 12 13.9892C9.92858 13.953 7.91501 14.6735 6.33671 16.0157C4.7583 17.3579 3.72361 19.2297 3.42654 21.2802C3.39101 21.4879 3.43925 21.7013 3.56073 21.8736C3.68248 22.0463 3.86784 22.1635 4.07602 22.1995C4.28419 22.2354 4.49814 22.1873 4.6708 22.0655C4.84345 21.9438 4.96067 21.7584 4.99666 21.5502L4.9967 21.5502L4.99711 21.5474C5.23785 19.8712 6.08186 18.3404 7.37083 17.2421C8.6598 16.1439 10.3052 15.5536 11.9983 15.582L11.9983 15.5821L12.0017 15.582C13.6949 15.5536 15.3402 16.1439 16.6292 17.2421C17.9182 18.3404 18.7622 19.8712 19.0029 21.5474L19.0029 21.5474L19.0034 21.5502C19.0353 21.735 19.1315 21.9026 19.2748 22.0234C19.4182 22.1443 19.5996 22.2107 19.7871 22.2109H19.7871C19.8329 22.211 19.8787 22.2069 19.9238 22.1988ZM19.9238 22.1988C19.9239 22.1988 19.924 22.1988 19.9242 22.1988L19.9064 22.1004L19.9234 22.1989C19.9235 22.1989 19.9237 22.1989 19.9238 22.1988Z" fill="white" stroke="white" stroke-width="0.2"/>
</svg>
