<svg width="24" height="25" viewBox="0 0 24 25" fill="none" xmlns="http://www.w3.org/2000/svg">
<path d="M22 13V19.5C22 20.2956 21.6839 21.0587 21.1213 21.6213C20.5587 22.1839 19.7956 22.5 19 22.5H5C4.20435 22.5 3.44129 22.1839 2.87868 21.6213C2.31607 21.0587 2 20.2956 2 19.5V5.5C2 4.70435 2.31607 3.94129 2.87868 3.37868C3.44129 2.81607 4.20435 2.5 5 2.5H11.5C11.6326 2.5 11.7598 2.55268 11.8536 2.64645C11.9473 2.74021 12 2.86739 12 3V4C12 4.13261 11.9473 4.25979 11.8536 4.35355C11.7598 4.44732 11.6326 4.5 11.5 4.5H5C4.73478 4.5 4.48043 4.60536 4.29289 4.79289C4.10536 4.98043 4 5.23478 4 5.5V19.5C4 19.7652 4.10536 20.0196 4.29289 20.2071C4.48043 20.3946 4.73478 20.5 5 20.5H19C19.2652 20.5 19.5196 20.3946 19.7071 20.2071C19.8946 20.0196 20 19.7652 20 19.5V13C20 12.8674 20.0527 12.7402 20.1464 12.6464C20.2402 12.5527 20.3674 12.5 20.5 12.5H21.5C21.6326 12.5 21.7598 12.5527 21.8536 12.6464C21.9473 12.7402 22 12.8674 22 13ZM21.4333 2.5H16.5678C16.4557 2.49998 16.3462 2.5332 16.253 2.59546C16.1598 2.65771 16.0871 2.74621 16.0442 2.84976C16.0013 2.9533 15.9901 3.06724 16.012 3.17717C16.0339 3.28709 16.0878 3.38806 16.1671 3.4673L17.5393 4.84C17.6331 4.93377 17.6857 5.06094 17.6857 5.19355C17.6857 5.32616 17.6331 5.45333 17.5393 5.5471L11.5864 11.5C11.4926 11.5938 11.44 11.7209 11.44 11.8535C11.44 11.9862 11.4926 12.1133 11.5864 12.2071L12.2934 12.9141C12.3872 13.0079 12.5143 13.0605 12.6469 13.0605C12.7796 13.0605 12.9067 13.0079 13.0005 12.9141L18.9534 6.9611C19.0472 6.86733 19.1743 6.81466 19.3069 6.81466C19.4396 6.81466 19.5667 6.86733 19.6605 6.9611L21.0326 8.3332C21.1119 8.41247 21.2129 8.46645 21.3228 8.4883C21.4328 8.51015 21.5468 8.49889 21.6503 8.45595C21.7539 8.41301 21.8424 8.34032 21.9046 8.24707C21.9669 8.15383 22.0001 8.04421 22 7.9321V3.0667C22 2.9164 21.9403 2.77226 21.834 2.66598C21.7277 2.55971 21.5836 2.5 21.4333 2.5Z" fill="#33363D"/>
</svg>
